<svg width="20" height="21" viewBox="0 0 20 21" fill="none" xmlns="http://www.w3.org/2000/svg">
<path d="M18.3333 3H1.66668C0.747461 3 0 3.74746 0 4.66668V16.3334C0 17.2525 0.747461 18 1.66668 18H18.3334C19.2525 18 20 17.2525 20 16.3333V4.66668C20 3.74746 19.2525 3 18.3333 3ZM1.66668 3.83332H18.3334C18.3948 3.83332 18.4489 3.8557 18.5065 3.86836C17.0636 5.18895 12.279 9.56598 10.6047 11.0745C10.4737 11.1925 10.2625 11.3333 10 11.3333C9.73758 11.3333 9.52641 11.1925 9.39496 11.0741C7.72078 9.56582 2.93598 5.18855 1.49328 3.86844C1.55102 3.85578 1.60523 3.83332 1.66668 3.83332ZM0.83332 16.3333V4.66668C0.83332 4.58504 0.85793 4.51098 0.879961 4.43637C1.98434 5.44715 5.32277 8.50121 7.48746 10.4697C5.3298 12.3231 1.99051 15.489 0.877344 16.5505C0.857695 16.4796 0.83332 16.4104 0.83332 16.3333ZM18.3333 17.1667H1.66668C1.60012 17.1667 1.54094 17.1435 1.47879 17.1286C2.62906 16.0321 5.98961 12.8479 8.10934 11.0345C8.38566 11.2852 8.63809 11.5138 8.83707 11.693C9.18051 12.0031 9.5825 12.1667 10 12.1667C10.4175 12.1667 10.8195 12.0031 11.1625 11.6934C11.3616 11.5141 11.6142 11.2853 11.8907 11.0345C14.0105 12.8477 17.3706 16.0316 18.5212 17.1286C18.4591 17.1435 18.4 17.1667 18.3333 17.1667ZM19.1667 16.3333C19.1667 16.4103 19.1423 16.4796 19.1227 16.5505C18.0091 15.4885 14.6702 12.3229 12.5126 10.4697C14.6773 8.50125 18.0153 5.44746 19.12 4.43629C19.1421 4.5109 19.1667 4.585 19.1667 4.66664V16.3333Z" fill="#F4F4F4"/>
</svg>
