<svg width="20" height="21" viewBox="0 0 20 21" fill="none" xmlns="http://www.w3.org/2000/svg">
<path d="M13.6861 18.9721C11.9814 18.9721 10.2768 18.9721 8.57218 18.9721C7.83843 18.9721 7.10461 18.9748 6.37086 18.9721C5.83929 18.9702 5.34722 18.6912 5.13679 18.1875C5.04683 17.9721 5.03968 17.754 5.03968 17.5276C5.03968 15.9843 5.03968 14.4409 5.03968 12.8975C5.03968 10.6727 5.03968 8.44793 5.03968 6.22312C5.03968 5.46797 5.03968 4.71281 5.03968 3.95766C5.03968 3.43172 4.97953 2.88492 5.36218 2.45785C5.86793 1.8934 6.70777 2.02824 7.39023 2.02824H10.6052H13.3587C13.6071 2.02824 13.8516 2.01574 14.0922 2.09379C14.6289 2.26781 14.959 2.7793 14.9649 3.33059C14.9792 4.6552 14.9649 5.98078 14.9649 7.30543V14.0441C14.9649 15.2595 14.9837 16.4766 14.9649 17.6919C14.9539 18.3994 14.393 18.9597 13.6861 18.9721C13.3848 18.9774 13.3838 19.4462 13.6861 19.4409C14.5091 19.4264 15.2527 18.8457 15.4019 18.0218C15.435 17.8396 15.4337 17.6615 15.4337 17.4783C15.4337 16.8607 15.4337 16.2431 15.4337 15.6255C15.4337 13.4196 15.4337 11.2136 15.4337 9.00758C15.4337 7.2357 15.4337 5.46379 15.4337 3.69191C15.4337 3.56668 15.4354 3.44133 15.4337 3.31613C15.4244 2.63953 15.0423 2.00203 14.4169 1.72066C14.0942 1.57551 13.7681 1.55957 13.4248 1.55957C13.0654 1.55957 12.706 1.55957 12.3466 1.55957C10.3794 1.55957 8.4123 1.55957 6.44519 1.55957C5.96746 1.55957 5.52355 1.68117 5.15656 2.00242C4.76652 2.34383 4.57304 2.84059 4.57093 3.35195C4.56898 3.8225 4.57093 4.29309 4.57093 4.76363V11.1434V16.9342C4.57093 17.452 4.52089 17.9903 4.75355 18.4705C5.0473 19.0769 5.67765 19.4336 6.34043 19.4409C6.57531 19.4435 6.81035 19.4409 7.04519 19.4409H13.1968L13.6861 19.4409C13.9877 19.4408 13.9882 18.9721 13.6861 18.9721Z" fill="#F4F4F4"/>
<path d="M11.9357 2.79133C11.3236 2.79133 10.7115 2.79133 10.0994 2.79133C9.42876 2.79133 8.75138 2.81961 8.08126 2.79133C7.53978 2.76848 7.63794 2.17289 7.63794 1.79395C7.55982 1.87207 7.48169 1.9502 7.40357 2.02832H11.9567H12.6006C12.5225 1.9502 12.4443 1.87207 12.3662 1.79395C12.3662 2.1591 12.4663 2.76988 11.9357 2.79133C11.6351 2.80348 11.6335 3.2723 11.9357 3.26008C12.3868 3.24184 12.7702 2.92695 12.8263 2.46863C12.8533 2.24727 12.835 2.01668 12.835 1.79395C12.835 1.66727 12.7276 1.55957 12.6006 1.55957C11.0829 1.55957 9.56521 1.55957 8.04751 1.55957C7.83287 1.55957 7.61822 1.55957 7.40357 1.55957C7.27689 1.55957 7.16919 1.66695 7.16919 1.79395C7.16919 2.28141 7.11216 2.80484 7.57872 3.1141C7.84228 3.28883 8.15158 3.26004 8.45095 3.26004H11.1393H11.9357C12.2373 3.26008 12.2378 2.79133 11.9357 2.79133Z" fill="#F4F4F4"/>
<path d="M12.6012 17.1592C11.0835 17.1592 9.56577 17.1592 8.04807 17.1592C7.83342 17.1592 7.61877 17.1592 7.40413 17.1592C7.10252 17.1592 7.10202 17.6279 7.40413 17.6279H11.9572H12.6012C12.9028 17.6279 12.9033 17.1592 12.6012 17.1592Z" fill="#F4F4F4"/>
</svg>
