<svg width="20" height="17" viewBox="0 0 20 17" fill="none" xmlns="http://www.w3.org/2000/svg">
<path d="M9.96957 8.34525C11.2791 7.5957 12.1739 6.20004 12.1739 4.58612C12.1739 2.18873 10.2235 0.238281 7.82608 0.238281C5.42869 0.238281 3.47824 2.18873 3.47824 4.58612C3.47824 6.20004 4.37303 7.5957 5.68259 8.34525C2.40697 9.20526 0 11.9748 0 15.2574V16.3252C0 16.5652 0.194796 16.76 0.434796 16.76C0.674796 16.76 0.869592 16.5652 0.869592 16.3252V15.2574C0.869551 11.7714 3.99045 8.93396 7.82608 8.93396C11.6617 8.93396 14.7826 11.7714 14.7826 15.2574V16.3252C14.7826 16.5652 14.9774 16.76 15.2174 16.76C15.4574 16.76 15.6522 16.5652 15.6522 16.3252V15.2574C15.6522 11.9748 13.2452 9.2044 9.96957 8.34525ZM4.34784 4.58612C4.34784 2.66787 5.90784 1.10787 7.82608 1.10787C9.74433 1.10787 11.3043 2.66787 11.3043 4.58612C11.3043 6.50436 9.74433 8.06436 7.82608 8.06436C5.90784 8.06436 4.34784 6.50441 4.34784 4.58612Z" fill="#F4F4F4"/>
<path d="M15.8246 8.35665C16.7672 7.73317 17.3916 6.66707 17.3916 5.45578C17.3916 3.53754 15.8316 1.97754 13.9133 1.97754C13.6733 1.97754 13.4785 2.17234 13.4785 2.41233C13.4785 2.65233 13.6733 2.84713 13.9133 2.84713C15.3516 2.84713 16.522 4.01758 16.522 5.45582C16.522 6.89407 15.3516 8.06452 13.9133 8.06452C13.6733 8.06452 13.4785 8.25932 13.4785 8.49931C13.4785 8.73931 13.6733 8.93403 13.9133 8.93403C16.7907 8.93403 19.1307 11.0966 19.1307 13.7558V14.5862C19.1307 14.8262 19.3255 15.021 19.5655 15.021C19.8055 15.021 20.0003 14.8262 20.0003 14.5862V13.7558C20.0003 11.2427 18.2472 9.10796 15.8246 8.35665Z" fill="#F4F4F4"/>
</svg>
