<svg width="40" height="41" viewBox="0 0 40 41" fill="none" xmlns="http://www.w3.org/2000/svg">
<g clip-path="url(#clip0_29_13518)">
<path d="M18.3329 38.8073C8.22484 38.8073 0 30.5827 0 20.4747C0 10.3667 8.22484 2.14185 18.3329 2.14185C21.8478 2.14185 25.2675 3.1434 28.2224 5.04001C28.8025 5.41353 28.9725 6.18682 28.599 6.76847C28.2242 7.35012 27.4524 7.51826 26.8708 7.14505C24.3208 5.50661 21.3677 4.64177 18.3329 4.64177C9.60297 4.64177 2.49992 11.7448 2.49992 20.4747C2.49992 29.2043 9.60297 36.3073 18.3329 36.3073C27.0624 36.3073 34.1655 29.2043 34.1655 20.4747C34.1655 19.9529 34.1405 19.4362 34.0923 18.9281C34.0257 18.2397 34.5289 17.6296 35.2156 17.5631C35.9056 17.4996 36.5138 17.9998 36.5806 18.6864C36.637 19.2748 36.6654 19.8714 36.6654 20.4747C36.6654 30.5827 28.4409 38.8073 18.3329 38.8073Z" fill="#0F6DBF"/>
<path d="M20.4161 24.6411C20.0963 24.6411 19.7762 24.5194 19.533 24.2746L12.0332 16.7749C11.5449 16.2863 11.5449 15.4947 12.0332 15.0064C12.5215 14.5182 13.3131 14.5182 13.8013 15.0064L20.4179 21.623L37.8655 4.17516C38.3541 3.68689 39.1457 3.68689 39.634 4.17516C40.1222 4.66343 40.1222 5.45503 39.634 5.94329L21.3011 24.2762C21.056 24.5194 20.7362 24.6411 20.4161 24.6411Z" fill="#0F6DBF"/>
</g>
<defs>
<clipPath id="clip0_29_13518">
<rect width="40" height="40" fill="white" transform="translate(0 0.5)"/>
</clipPath>
</defs>
</svg>
