<svg width="33" height="34" viewBox="0 0 33 34" fill="none" xmlns="http://www.w3.org/2000/svg">
<g clip-path="url(#clip0_29_19888)">
<path fill-rule="evenodd" clip-rule="evenodd" d="M7.51395 22.25C7.61341 22.4223 7.77722 22.548 7.96936 22.5994C8.16149 22.6509 8.36621 22.624 8.53847 22.5245L23.858 13.6798L22.1295 20.1268C22.0779 20.3192 22.1049 20.5241 22.2045 20.6966C22.3041 20.8691 22.4681 20.995 22.6605 21.0465C22.8528 21.0981 23.0578 21.0711 23.2303 20.9715C23.4028 20.8719 23.5286 20.7079 23.5802 20.5155L25.7763 12.3194C25.802 12.2241 25.8086 12.1247 25.7958 12.0269C25.783 11.9291 25.751 11.8348 25.7016 11.7493C25.6523 11.6639 25.5866 11.589 25.5083 11.529C25.43 11.469 25.3406 11.425 25.2453 11.3996L17.0492 9.20348C16.9539 9.17796 16.8546 9.17145 16.7568 9.18432C16.659 9.19719 16.5647 9.22919 16.4793 9.2785C16.3069 9.37808 16.181 9.5421 16.1295 9.73448C16.0779 9.92686 16.1049 10.1318 16.2045 10.3043C16.3041 10.4768 16.4681 10.6027 16.6605 10.6542L23.108 12.3807L7.78847 21.2255C7.61621 21.3249 7.49051 21.4887 7.43903 21.6809C7.38754 21.873 7.41449 22.0777 7.51395 22.25Z" fill="white"/>
</g>
<defs>
<clipPath id="clip0_29_19888">
<rect width="24" height="24" fill="white" transform="translate(21 0.607697) rotate(60)"/>
</clipPath>
</defs>
</svg>
