<svg width="33" height="34" viewBox="0 0 33 34" fill="none" xmlns="http://www.w3.org/2000/svg">
<g clip-path="url(#clip0_29_20212)">
<path fill-rule="evenodd" clip-rule="evenodd" d="M7.51297 22.0981C7.61243 22.2704 7.77624 22.3961 7.96838 22.4476C8.16051 22.4991 8.36523 22.4721 8.53749 22.3727L23.857 13.5279L22.1285 19.9749C22.0769 20.1673 22.1039 20.3723 22.2035 20.5448C22.3031 20.7172 22.4671 20.8431 22.6595 20.8947C22.8519 20.9462 23.0568 20.9192 23.2293 20.8196C23.4018 20.72 23.5276 20.556 23.5792 20.3637L25.7753 12.1675C25.801 12.0722 25.8076 11.9729 25.7948 11.875C25.782 11.7772 25.75 11.6829 25.7007 11.5975C25.6513 11.512 25.5856 11.4372 25.5073 11.3772C25.429 11.3172 25.3397 11.2732 25.2443 11.2478L17.0482 9.05163C16.9529 9.0261 16.8536 9.01959 16.7558 9.03246C16.658 9.04534 16.5638 9.07734 16.4784 9.12665C16.3059 9.22623 16.18 9.39025 16.1285 9.58263C16.0769 9.775 16.1039 9.97998 16.2035 10.1525C16.3031 10.3249 16.4671 10.4508 16.6595 10.5023L23.107 12.2289L7.78749 21.0736C7.61523 21.1731 7.48953 21.3369 7.43805 21.529C7.38657 21.7212 7.41352 21.9259 7.51297 22.0981Z" fill="#0F6DBF"/>
</g>
<defs>
<clipPath id="clip0_29_20212">
<rect width="24" height="24" fill="white" transform="translate(20.999 0.456055) rotate(60)"/>
</clipPath>
</defs>
</svg>
