<svg width="16" height="17" viewBox="0 0 16 17" fill="none" xmlns="http://www.w3.org/2000/svg">
<g clip-path="url(#clip0_29_20185)">
<path d="M14.1833 16.4561C12.563 16.4561 10.962 16.1029 9.38056 15.3967C7.79907 14.6905 6.36019 13.689 5.06389 12.3922C3.76759 11.0954 2.76633 9.65646 2.06011 8.0755C1.35389 6.49454 1.00052 4.89361 1 3.27272C1 3.03939 1.07778 2.84494 1.23333 2.68939C1.38889 2.53383 1.58333 2.45605 1.81667 2.45605H4.96667C5.14815 2.45605 5.31019 2.51776 5.45278 2.64117C5.59537 2.76457 5.67963 2.91028 5.70556 3.07828L6.21111 5.8005C6.23704 6.00791 6.23056 6.18291 6.19167 6.3255C6.15278 6.46809 6.08148 6.59124 5.97778 6.69494L4.09167 8.6005C4.35093 9.08013 4.65867 9.54343 5.01489 9.99039C5.37111 10.4374 5.76337 10.8685 6.19167 11.2838C6.59352 11.6857 7.01481 12.0585 7.45556 12.4023C7.8963 12.7461 8.36296 13.0603 8.85556 13.3449L10.6833 11.5172C10.8 11.4005 10.9524 11.3131 11.1407 11.2551C11.3289 11.197 11.5135 11.1806 11.6944 11.2061L14.3778 11.7505C14.5593 11.8024 14.7083 11.8965 14.825 12.0328C14.9417 12.1692 15 12.3214 15 12.4894V15.6394C15 15.8727 14.9222 16.0672 14.7667 16.2227C14.6111 16.3783 14.4167 16.4561 14.1833 16.4561Z" fill="black"/>
</g>
<defs>
<clipPath id="clip0_29_20185">
<rect width="16" height="16" fill="white" transform="translate(0 0.956055)"/>
</clipPath>
</defs>
</svg>
