<svg width="33" height="33" viewBox="0 0 33 33" fill="none" xmlns="http://www.w3.org/2000/svg">
<path d="M10.6161 2.90723H21.8161C26.0828 2.90723 29.5495 6.37389 29.5495 10.6406V21.8406C29.5495 23.8916 28.7347 25.8586 27.2844 27.3089C25.8342 28.7591 23.8672 29.5739 21.8161 29.5739H10.6161C6.34948 29.5739 2.88281 26.1072 2.88281 21.8406V10.6406C2.88281 8.58955 3.69757 6.62255 5.14785 5.17227C6.59813 3.72199 8.56514 2.90723 10.6161 2.90723ZM10.3495 5.57389C9.07644 5.57389 7.85554 6.07961 6.95537 6.97978C6.05519 7.87996 5.54948 9.10085 5.54948 10.3739V22.1072C5.54948 24.7606 7.69615 26.9072 10.3495 26.9072H22.0828C23.3559 26.9072 24.5767 26.4015 25.4769 25.5013C26.3771 24.6012 26.8828 23.3803 26.8828 22.1072V10.3739C26.8828 7.72056 24.7361 5.57389 22.0828 5.57389H10.3495ZM23.2161 7.57389C23.6582 7.57389 24.0821 7.74949 24.3947 8.06205C24.7072 8.37461 24.8828 8.79853 24.8828 9.24056C24.8828 9.68259 24.7072 10.1065 24.3947 10.4191C24.0821 10.7316 23.6582 10.9072 23.2161 10.9072C22.7741 10.9072 22.3502 10.7316 22.0376 10.4191C21.7251 10.1065 21.5495 9.68259 21.5495 9.24056C21.5495 8.79853 21.7251 8.37461 22.0376 8.06205C22.3502 7.74949 22.7741 7.57389 23.2161 7.57389ZM16.2161 9.57389C17.9843 9.57389 19.6799 10.2763 20.9302 11.5265C22.1804 12.7768 22.8828 14.4724 22.8828 16.2406C22.8828 18.0087 22.1804 19.7044 20.9302 20.9546C19.6799 22.2048 17.9843 22.9072 16.2161 22.9072C14.448 22.9072 12.7523 22.2048 11.5021 20.9546C10.2519 19.7044 9.54948 18.0087 9.54948 16.2406C9.54948 14.4724 10.2519 12.7768 11.5021 11.5265C12.7523 10.2763 14.448 9.57389 16.2161 9.57389ZM16.2161 12.2406C15.1553 12.2406 14.1379 12.662 13.3877 13.4121C12.6376 14.1623 12.2161 15.1797 12.2161 16.2406C12.2161 17.3014 12.6376 18.3188 13.3877 19.069C14.1379 19.8191 15.1553 20.2406 16.2161 20.2406C17.277 20.2406 18.2944 19.8191 19.0446 19.069C19.7947 18.3188 20.2161 17.3014 20.2161 16.2406C20.2161 15.1797 19.7947 14.1623 19.0446 13.4121C18.2944 12.662 17.277 12.2406 16.2161 12.2406Z" fill="black"/>
</svg>
