<svg width="33" height="33" viewBox="0 0 33 33" fill="none" xmlns="http://www.w3.org/2000/svg">
<path d="M25.5482 4.24023C26.2554 4.24023 26.9337 4.52119 27.4338 5.02128C27.9339 5.52138 28.2148 6.19966 28.2148 6.9069V25.5736C28.2148 26.2808 27.9339 26.9591 27.4338 27.4592C26.9337 27.9593 26.2554 28.2402 25.5482 28.2402H6.88151C6.17427 28.2402 5.49599 27.9593 4.99589 27.4592C4.4958 26.9591 4.21484 26.2808 4.21484 25.5736V6.9069C4.21484 6.19966 4.4958 5.52138 4.99589 5.02128C5.49599 4.52119 6.17427 4.24023 6.88151 4.24023H25.5482ZM24.8815 24.9069V17.8402C24.8815 16.6874 24.4236 15.5818 23.6084 14.7667C22.7932 13.9515 21.6877 13.4936 20.5348 13.4936C19.4015 13.4936 18.0815 14.1869 17.4415 15.2269V13.7469H13.7215V24.9069H17.4415V18.3336C17.4415 17.3069 18.2682 16.4669 19.2948 16.4669C19.7899 16.4669 20.2647 16.6636 20.6148 17.0136C20.9648 17.3637 21.1615 17.8385 21.1615 18.3336V24.9069H24.8815ZM9.38818 11.6536C9.98226 11.6536 10.552 11.4176 10.9721 10.9975C11.3922 10.5774 11.6282 10.0077 11.6282 9.41357C11.6282 8.17357 10.6282 7.16023 9.38818 7.16023C8.79056 7.16023 8.21741 7.39764 7.79483 7.82022C7.37225 8.2428 7.13484 8.81595 7.13484 9.41357C7.13484 10.6536 8.14818 11.6536 9.38818 11.6536ZM11.2415 24.9069V13.7469H7.54818V24.9069H11.2415Z" fill="black"/>
</svg>
