<svg width="20" height="21" viewBox="0 0 20 21" fill="none" xmlns="http://www.w3.org/2000/svg">
<g clip-path="url(#clip0_29_20189)">
<path d="M10 0.956055C8.01169 0.958692 6.10556 1.74972 4.69961 3.15567C3.29366 4.56162 2.50264 6.46774 2.5 8.45605C2.5 13.8404 9.4875 20.5842 9.78437 20.8686C9.84212 20.9247 9.91947 20.9561 10 20.9561C10.0805 20.9561 10.1579 20.9247 10.2156 20.8686C10.5125 20.5842 17.5 13.8404 17.5 8.45605C17.4974 6.46774 16.7063 4.56162 15.3004 3.15567C13.8944 1.74972 11.9883 0.958692 10 0.956055ZM10 11.8936C9.32013 11.8936 8.65552 11.6919 8.09023 11.3142C7.52493 10.9365 7.08434 10.3997 6.82416 9.77153C6.56399 9.14341 6.49591 8.45224 6.62855 7.78543C6.76119 7.11862 7.08858 6.50612 7.56932 6.02537C8.05006 5.54463 8.66257 5.21724 9.32938 5.08461C9.99619 4.95197 10.6874 5.02004 11.3155 5.28022C11.9436 5.54039 12.4805 5.98099 12.8582 6.54628C13.2359 7.11158 13.4375 7.77618 13.4375 8.45605C13.437 9.36757 13.0746 10.2416 12.4301 10.8861C11.7855 11.5307 10.9115 11.893 10 11.8936Z" fill="black"/>
</g>
<defs>
<clipPath id="clip0_29_20189">
<rect width="20" height="20" fill="white" transform="translate(0 0.956055)"/>
</clipPath>
</defs>
</svg>
