<svg width="33" height="33" viewBox="0 0 33 33" fill="none" xmlns="http://www.w3.org/2000/svg">
<path d="M30.1619 8.23991C29.1352 8.70658 28.0286 9.01324 26.8819 9.15991C28.0552 8.45324 28.9619 7.33324 29.3886 5.98658C28.2819 6.65324 27.0552 7.11991 25.7619 7.38658C24.7086 6.23991 23.2286 5.57324 21.5486 5.57324C18.4152 5.57324 15.8552 8.13324 15.8552 11.2932C15.8552 11.7466 15.9086 12.1866 16.0019 12.5999C11.2552 12.3599 7.02855 10.0799 4.21522 6.62658C3.72189 7.46658 3.44189 8.45324 3.44189 9.49324C3.44189 11.4799 4.44189 13.2399 5.98855 14.2399C5.04189 14.2399 4.16189 13.9732 3.38855 13.5732V13.6132C3.38855 16.3866 5.36189 18.7066 7.97522 19.2266C7.13634 19.4572 6.25527 19.4891 5.40189 19.3199C5.76403 20.4565 6.47327 21.4511 7.42991 22.1638C8.38655 22.8765 9.54248 23.2715 10.7352 23.2932C8.71345 24.8939 6.20723 25.7591 3.62855 25.7466C3.17522 25.7466 2.72189 25.7199 2.26855 25.6666C4.80189 27.2932 7.81522 28.2399 11.0419 28.2399C21.5486 28.2399 27.3219 19.5199 27.3219 11.9599C27.3219 11.7066 27.3219 11.4666 27.3086 11.2132C28.4286 10.4132 29.3886 9.39991 30.1619 8.23991Z" fill="black"/>
</svg>
