<svg width="21" height="20" viewBox="0 0 21 20" fill="none" xmlns="http://www.w3.org/2000/svg">
<path d="M7.00033 1.66687H14.0003C16.667 1.66687 18.8337 3.83354 18.8337 6.5002V13.5002C18.8337 14.7821 18.3244 16.0115 17.418 16.9179C16.5116 17.8243 15.2822 18.3335 14.0003 18.3335H7.00033C4.33366 18.3335 2.16699 16.1669 2.16699 13.5002V6.5002C2.16699 5.21832 2.67622 3.98895 3.58264 3.08252C4.48907 2.17609 5.71845 1.66687 7.00033 1.66687ZM6.83366 3.33354C6.03801 3.33354 5.27495 3.64961 4.71234 4.21222C4.14973 4.77483 3.83366 5.53789 3.83366 6.33354V13.6669C3.83366 15.3252 5.17533 16.6669 6.83366 16.6669H14.167C14.9626 16.6669 15.7257 16.3508 16.2883 15.7882C16.8509 15.2256 17.167 14.4625 17.167 13.6669V6.33354C17.167 4.6752 15.8253 3.33354 14.167 3.33354H6.83366ZM14.8753 4.58354C15.1516 4.58354 15.4165 4.69328 15.6119 4.88863C15.8072 5.08398 15.917 5.34894 15.917 5.6252C15.917 5.90147 15.8072 6.16642 15.6119 6.36177C15.4165 6.55712 15.1516 6.66687 14.8753 6.66687C14.5991 6.66687 14.3341 6.55712 14.1388 6.36177C13.9434 6.16642 13.8337 5.90147 13.8337 5.6252C13.8337 5.34894 13.9434 5.08398 14.1388 4.88863C14.3341 4.69328 14.5991 4.58354 14.8753 4.58354ZM10.5003 5.83354C11.6054 5.83354 12.6652 6.27252 13.4466 7.05393C14.228 7.83533 14.667 8.89513 14.667 10.0002C14.667 11.1053 14.228 12.1651 13.4466 12.9465C12.6652 13.7279 11.6054 14.1669 10.5003 14.1669C9.39526 14.1669 8.33545 13.7279 7.55405 12.9465C6.77265 12.1651 6.33366 11.1053 6.33366 10.0002C6.33366 8.89513 6.77265 7.83533 7.55405 7.05393C8.33545 6.27252 9.39526 5.83354 10.5003 5.83354ZM10.5003 7.5002C9.83728 7.5002 9.2014 7.7636 8.73256 8.23244C8.26372 8.70128 8.00033 9.33716 8.00033 10.0002C8.00033 10.6632 8.26372 11.2991 8.73256 11.768C9.2014 12.2368 9.83728 12.5002 10.5003 12.5002C11.1634 12.5002 11.7993 12.2368 12.2681 11.768C12.7369 11.2991 13.0003 10.6632 13.0003 10.0002C13.0003 9.33716 12.7369 8.70128 12.2681 8.23244C11.7993 7.7636 11.1634 7.5002 10.5003 7.5002Z" fill="white"/>
</svg>
