<svg width="21" height="20" viewBox="0 0 21 20" fill="none" xmlns="http://www.w3.org/2000/svg">
<path d="M16.0833 2.5C16.5254 2.5 16.9493 2.67559 17.2618 2.98816C17.5744 3.30072 17.75 3.72464 17.75 4.16667V15.8333C17.75 16.2754 17.5744 16.6993 17.2618 17.0118C16.9493 17.3244 16.5254 17.5 16.0833 17.5H4.41667C3.97464 17.5 3.55072 17.3244 3.23816 17.0118C2.92559 16.6993 2.75 16.2754 2.75 15.8333V4.16667C2.75 3.72464 2.92559 3.30072 3.23816 2.98816C3.55072 2.67559 3.97464 2.5 4.41667 2.5H16.0833ZM15.6667 15.4167V11C15.6667 10.2795 15.3804 9.5885 14.871 9.07903C14.3615 8.56955 13.6705 8.28333 12.95 8.28333C12.2417 8.28333 11.4167 8.71667 11.0167 9.36667V8.44167H8.69167V15.4167H11.0167V11.3083C11.0167 10.6667 11.5333 10.1417 12.175 10.1417C12.4844 10.1417 12.7812 10.2646 13 10.4834C13.2188 10.7022 13.3417 10.9989 13.3417 11.3083V15.4167H15.6667ZM5.98333 7.13333C6.35464 7.13333 6.71073 6.98583 6.97328 6.72328C7.23583 6.46073 7.38333 6.10464 7.38333 5.73333C7.38333 4.95833 6.75833 4.325 5.98333 4.325C5.60982 4.325 5.2516 4.47338 4.98749 4.73749C4.72338 5.0016 4.575 5.35982 4.575 5.73333C4.575 6.50833 5.20833 7.13333 5.98333 7.13333ZM7.14167 15.4167V8.44167H4.83333V15.4167H7.14167Z" fill="white"/>
</svg>
