<svg width="20" height="20" viewBox="0 0 20 20" fill="none" xmlns="http://www.w3.org/2000/svg">
<path d="M18.7165 4.99999C18.0749 5.29166 17.3832 5.48333 16.6665 5.57499C17.3999 5.13333 17.9665 4.43333 18.2332 3.59166C17.5415 4.00833 16.7749 4.3 15.9665 4.46666C15.3082 3.74999 14.3832 3.33333 13.3332 3.33333C11.3749 3.33333 9.77487 4.93333 9.77487 6.90833C9.77487 7.19166 9.8082 7.46666 9.86654 7.725C6.89987 7.575 4.2582 6.14999 2.49987 3.99166C2.19154 4.51666 2.01654 5.13333 2.01654 5.78333C2.01654 7.02499 2.64154 8.12499 3.6082 8.74999C3.01654 8.74999 2.46654 8.58333 1.9832 8.33333V8.35833C1.9832 10.0917 3.21654 11.5417 4.84987 11.8667C4.32557 12.0108 3.7749 12.0307 3.24154 11.925C3.46788 12.6354 3.91115 13.257 4.50905 13.7024C5.10695 14.1479 5.82941 14.3947 6.57487 14.4083C5.31126 15.4088 3.74488 15.9495 2.1332 15.9417C1.84987 15.9417 1.56654 15.925 1.2832 15.8917C2.86654 16.9083 4.74987 17.5 6.76654 17.5C13.3332 17.5 16.9415 12.05 16.9415 7.32499C16.9415 7.16666 16.9415 7.01666 16.9332 6.85833C17.6332 6.35833 18.2332 5.72499 18.7165 4.99999Z" fill="white"/>
</svg>
