<svg width="27" height="27" viewBox="0 0 27 27" fill="none" xmlns="http://www.w3.org/2000/svg">
<path fill-rule="evenodd" clip-rule="evenodd" d="M1.33482 25.8599C1.57314 26.0904 1.89324 26.2168 2.22471 26.2112C2.55619 26.2057 2.87188 26.0687 3.10234 25.8303L23.5976 4.63694L23.7821 15.76C23.7877 16.0919 23.9249 16.408 24.1635 16.6387C24.4021 16.8695 24.7226 16.996 25.0545 16.9904C25.3864 16.9849 25.7025 16.8477 25.9332 16.6091C26.164 16.3705 26.2905 16.05 26.2849 15.7181L26.0482 1.5779C26.0456 1.41351 26.0107 1.25122 25.9453 1.10035C25.8799 0.949484 25.7855 0.812992 25.6673 0.698694C25.5491 0.584396 25.4095 0.494538 25.2565 0.434267C25.1035 0.373995 24.9402 0.344495 24.7758 0.347455L10.6356 0.584242C10.4713 0.586994 10.3091 0.622088 10.1583 0.687519C10.0076 0.75295 9.87116 0.847439 9.75691 0.965588C9.52615 1.2042 9.39964 1.52471 9.4052 1.8566C9.41075 2.18849 9.54793 2.50459 9.78654 2.73534C10.0252 2.96609 10.3457 3.09261 10.6776 3.08705L21.8005 2.89902L1.30522 24.0924C1.07476 24.3307 0.948408 24.6508 0.953959 24.9823C0.959509 25.3138 1.09651 25.6295 1.33482 25.8599Z" fill="#0F6DBF"/>
</svg>
