<svg width="36" height="24" viewBox="0 0 36 24" fill="none" xmlns="http://www.w3.org/2000/svg">
<path fill-rule="evenodd" clip-rule="evenodd" d="M0.719444 12.0001C0.719444 12.3316 0.851139 12.6496 1.08556 12.884C1.31998 13.1184 1.63792 13.2501 1.96944 13.2501L31.4519 13.2501L23.5844 21.1151C23.3497 21.3498 23.2179 21.6682 23.2179 22.0001C23.2179 22.3321 23.3497 22.6504 23.5844 22.8851C23.8192 23.1198 24.1375 23.2517 24.4694 23.2517C24.8014 23.2517 25.1197 23.1198 25.3544 22.8851L35.3544 12.8851C35.4709 12.769 35.5632 12.6311 35.6262 12.4792C35.6892 12.3273 35.7217 12.1645 35.7217 12.0001C35.7217 11.8357 35.6892 11.6729 35.6262 11.521C35.5632 11.3692 35.4709 11.2312 35.3544 11.1151L25.3544 1.11511C25.2382 0.998894 25.1003 0.906704 24.9484 0.843806C24.7966 0.780908 24.6338 0.748535 24.4694 0.748535C24.1375 0.748535 23.8192 0.880397 23.5844 1.11511C23.3497 1.34983 23.2179 1.66817 23.2179 2.00011C23.2179 2.33205 23.3497 2.6504 23.5844 2.88511L31.4519 10.7501L1.96944 10.7501C1.63792 10.7501 1.31998 10.8818 1.08556 11.1162C0.851139 11.3507 0.719444 11.6686 0.719444 12.0001Z" fill="#010326"/>
</svg>
