<svg width="75" height="50" viewBox="0 0 75 50" fill="none" xmlns="http://www.w3.org/2000/svg">
<path d="M21.415 44.6405C20.7941 46.8627 19.1928 48.3007 16.6111 48.9869C14.0294 49.6732 11.8725 50 10.2059 50C8.53922 50 6.90523 49.8039 5.30392 49.4444C2.10131 48.5948 0.5 46.9608 0.5 44.6405V5.55556C0.5 3.33333 3.14706 1.73203 8.47385 0.751635C11.0556 0.261439 13.7353 0 16.4477 0C19.1601 0 21.8725 0.261439 24.585 0.751635C29.8791 1.73203 32.5588 3.33333 32.5588 5.55556C32.5261 5.55556 21.415 44.6405 21.415 44.6405ZM63.2778 44.6405C62.6569 46.8627 61.0556 48.3007 58.4739 48.9869C55.8922 49.6732 53.7353 50 52.0686 50C50.402 50 48.768 49.8039 47.1667 49.4444C43.9641 48.5948 42.3627 46.9608 42.3627 44.6405V5.55556C42.3627 3.33333 45.0098 1.73203 50.3366 0.751635C52.9183 0.261439 55.598 0 58.3105 0C61.0229 0 63.7353 0.261439 66.4804 0.751635C71.7745 1.73203 74.4542 3.33333 74.4542 5.55556L63.2778 44.6405Z" fill="#0F6DBF"/>
</svg>
