<svg width="54" height="55" viewBox="0 0 54 55" fill="none" xmlns="http://www.w3.org/2000/svg">
<circle cx="27" cy="27.5" r="27" fill="white"/>
<path fill-rule="evenodd" clip-rule="evenodd" d="M16.4996 27.5C16.4996 27.3011 16.5787 27.1104 16.7193 26.9697C16.86 26.829 17.0507 26.75 17.2496 26.75L34.9391 26.75L30.2186 22.031C30.0778 21.8902 29.9987 21.6992 29.9987 21.5C29.9987 21.3009 30.0778 21.1099 30.2186 20.969C30.3595 20.8282 30.5505 20.7491 30.7496 20.7491C30.9488 20.7491 31.1398 20.8282 31.2806 20.969L37.2806 26.969C37.3505 27.0387 37.4059 27.1215 37.4437 27.2126C37.4815 27.3037 37.501 27.4014 37.501 27.5C37.501 27.5987 37.4815 27.6964 37.4437 27.7875C37.4059 27.8786 37.3505 27.9614 37.2806 28.031L31.2806 34.031C31.2109 34.1008 31.1281 34.1561 31.037 34.1938C30.9459 34.2316 30.8483 34.251 30.7496 34.251C30.5505 34.251 30.3595 34.1719 30.2186 34.031C30.0778 33.8902 29.9987 33.6992 29.9987 33.5C29.9987 33.3009 30.0778 33.1099 30.2186 32.969L34.9391 28.25L17.2496 28.25C17.0507 28.25 16.86 28.171 16.7193 28.0304C16.5787 27.8897 16.4996 27.6989 16.4996 27.5Z" fill="#0F6DBF"/>
</svg>
